#!OML:ASF F:\VICON\USERDATA\INSTALL\rory3\rory3.ASF
:FULLY-SPECIFIED
:DEGREES
304
root 5.0047 17.801 26.4766 0.770518 -6.32637 -7.64516
lowerback 9.92789 2.22062 7.17923
upperback -0.014844 3.90253 2.22087
thorax -5.27029 1.76045 -2.24617
lowerneck -16.9434 -3.04577 -2.00481
upperneck 17.8272 -3.96577 1.41017
head 8.40952 -1.86201 0.322121
rclavicle 3.64646e-015 9.24349e-015
rhumerus -20.5737 -5.5151 -83.7723
rradius 32.8367
rwrist -1.18442
rhand -17.7334 24.2798
rfingers 7.12502
rthumb 8.5276 -5.52803
lclavicle 3.64646e-015 9.24349e-015
lhumerus -38.7154 0.751571 86.0865
lradius 30.8461
lwrist 3.9094
lhand -23.9058 29.3714
lfingers 7.12502
lthumb 2.56835 59.3357
rfemur 6.09012 7.66309 34.3215
rtibia 24.5674
rfoot -20.6306 -6.71138
rtoes -0.442489
lfemur -26.8933 -4.73366 -8.35995
ltibia 13.3172
lfoot -7.22762 7.26604
ltoes -2.09275
305
root 5.01778 17.7753 26.6622 0.78023 -6.38414 -7.80623
lowerback 10.2082 2.22041 7.35948
upperback -0.110471 3.95618 2.21377
thorax -5.51307 1.77018 -2.37764
lowerneck -16.7882 -2.98833 -1.86043
upperneck 17.7322 -3.91374 1.35491
head 8.34462 -1.83502 0.289324
rclavicle 5.49018e-014 3.72721e-015
rhumerus -20.6136 -5.85611 -83.7509
rradius 32.9406
rwrist -1.05071
rhand -17.7552 24.8215
rfingers 7.12502
rthumb 8.50662 -4.98719
lclavicle 5.49018e-014 3.72721e-015
lhumerus -39.3606 0.499971 86.2121
lradius 31.0305
lwrist 3.42209
lhand -23.7514 30.7976
lfingers 7.12502
lthumb 2.71741 60.76
rfemur 6.74564 7.8114 34.4815
rtibia 24.5956
rfoot -20.577 -6.68054
rtoes -1.00411
lfemur -26.4634 -5.36424 -7.85632
ltibia 11.2567
lfoot -8.18955 7.97947
ltoes 1.7153
306
root 5.03994 17.7559 26.8548 0.723458 -6.43773 -7.7624
lowerback 10.4006 2.22968 7.40192
upperback -0.183089 3.99598 2.19196
thorax -5.69084 1.77949 -2.44157
lowerneck -16.6287 -2.98861 -1.83092
upperneck 17.7303 -3.91153 1.29236
head 8.31365 -1.83967 0.266193
rclavicle 1.55984e-014 1.93815e-014
rhumerus -20.6401 -6.04572 -83.6302
rradius 32.9167
rwrist -1.04222
rhand -17.7575 24.9173
rfingers 7.12502
rthumb 8.50435 -4.89149
lclavicle 1.55984e-014 1.93815e-014
lhumerus -39.8532 0.448729 86.3621
lradius 31.019
lwrist 2.26615
lhand -22.6382 33.291
lfingers 7.12502
lthumb 3.79248 63.237
rfemur 7.40934 7.78467 34.3237
rtibia 24.7591
rfoot -20.6383 -6.41372
rtoes -1.51927
lfemur -26.0289 -5.06011 -8.12525
ltibia 9.91093
lfoot -6.76235 7.66844
ltoes -5.72357
307
root 5.06161 17.7353 27.0447 0.725018 -6.52423 -7.76515
lowerback 10.4116 2.25918 7.49971
upperback -0.143903 4.04347 2.16366
thorax -5.64246 1.80222 -2.53123
lowerneck -16.7484 -2.99834 -1.89389
upperneck 17.7975 -3.92679 1.38285
head 8.36112 -1.84049 0.302678
rclavicle 1.07903e-014 -1.60519e-014
rhumerus -20.3713 -6.16147 -83.5944
rradius 32.8837
rwrist -0.905136
rhand -17.7524 24.1201
rfingers 7.12502
rthumb 8.5093 -5.68843
lclavicle 1.07903e-014 -1.60519e-014
lhumerus -39.9305 0.012634 86.7335
lradius 30.5815
lwrist 5.01664
lhand -26.8554 26.3404
lfingers 7.12502
lthumb -0.280445 56.32
rfemur 7.89881 7.84646 34.211
rtibia 25.1309
rfoot -20.8074 -6.13466
rtoes -2.49395
lfemur -25.9608 -4.71731 -8.35476
ltibia 9.51976
lfoot -6.52032 7.60208
ltoes -8.29894
308
root 5.08126 17.7079 27.2349 0.793378 -6.63082 -7.925
lowerback 10.4409 2.30216 7.67397
upperback -0.0831892 4.12267 2.20989
thorax -5.57883 1.84039 -2.58961
lowerneck -17.166 -3.06441 -1.99507
upperneck 18.0005 -4.00678 1.47437
head 8.5097 -1.87129 0.332614
rclavicle 4.14342e-015 -1.98785e-015
rhumerus -19.9402 -6.42494 -83.5291
rradius 32.9463
rwrist -0.709516
rhand -17.7261 23.0487
rfingers 7.12502
rthumb 8.53462 -6.75881
lclavicle 4.14342e-015 -1.98785e-015
lhumerus -39.9309 0.232139 86.7071
lradius 30.7972
lwrist 6.25091
lhand -28.4137 21.2782
lfingers 7.12502
lthumb -1.78549 51.2505
rfemur 8.245 7.96342 34.2979
rtibia 25.6744
rfoot -20.8127 -6.18602
rtoes -3.82659
lfemur -26.2905 -4.32962 -8.39801
ltibia 10.0996
lfoot -6.19344 7.8063
ltoes -6.90782
309
root 5.10505 17.6768 27.4351 0.754486 -6.70727 -7.82215
lowerback 10.4933 2.32873 7.61867
upperback -0.0557275 4.15373 2.19638
thorax -5.57878 1.85753 -2.57955
lowerneck -17.4493 -3.09156 -2.02278
upperneck 18.2086 -4.03244 1.46025
head 8.63164 -1.88354 0.323633
rclavicle -1.34118e-014 7.95139e-015
rhumerus -19.7902 -6.64631 -83.4048
rradius 33.0221
rwrist -0.672783
rhand -17.7314 22.5767
rfingers 7.12502
rthumb 8.52954 -7.231
lclavicle -1.34118e-014 7.95139e-015
lhumerus -40.1302 0.730985 86.499
lradius 31.304
lwrist 5.41471
lhand -27.0989 22.3043
lfingers 7.12502
lthumb -0.515655 52.2834
rfemur 8.63232 7.94688 34.0496
rtibia 26.3299
rfoot -20.7871 -5.92926
rtoes -4.6153
lfemur -26.689 -3.20817 -9.15178
ltibia 11.4159
lfoot -5.2754 7.22814
ltoes -7.85666
